# xmcd CD database file
#
# Track frame offsets:
#	150
#	19870
#	41747
#	68556
#	88278
#	110156
#
# Disc length: 1824 seconds
#
# Revision: 2
# Processed by: cddbd v1.5.2PL0 Copyright (c) Steve Scherf et al.
# Submitted via: CDex 1.70beta3
#
DISCID=4f071e06
DTITLE=KAT-TUN - FACE to face
DYEAR=1900
DGENRE=blues
TTITLE0=FACE to face
TTITLE1=DRAMATIC
TTITLE2=あの日のまま
TTITLE3=FACE to face -original karaoke-
TTITLE4=DRAMATIC -original karaoke-
TTITLE5=あの日のまま -original karaoke-
EXTD=
EXTT0=
EXTT1=
EXTT2=
EXTT3=
EXTT4=
EXTT5=
PLAYORDER=
